<?xml version="1.0" encoding="UTF-8"?>
<svg version="1.1" xmlns="http://www.w3.org/2000/svg" width="500" height="500">
<path d="M0 0 C3.29030302 2.68697714 5.41967154 6.16692589 7.70629883 9.69750977 C10.46949457 13.94853436 13.47896106 17.26809319 17.15625 20.71875 C20.02399178 23.67445932 22.1926075 27.0400206 24.484375 30.44921875 C26.08349444 32.84567107 26.08349444 32.84567107 28.56640625 35.1875 C33.28083755 39.9019313 37.02933674 45.43565694 39.8828125 51.453125 C42.22050227 56.23126631 45.27120087 60.37005845 48.44140625 64.625 C50.66466315 67.63522751 52.87539117 70.65371131 55.06640625 73.6875 C55.60144775 74.42492432 56.13648926 75.16234863 56.68774414 75.92211914 C60.32765418 81.12743509 62.75085531 86.23372099 64.75390625 92.25 C65.05079346 93.11842529 65.34768066 93.98685059 65.65356445 94.8815918 C67.84018733 101.49232622 69.27504828 108.02210201 70.37890625 114.88671875 C71.08704524 118.80160078 72.12314164 122.50009572 73.25390625 126.3125 C75.29978589 133.61699041 75.48577356 140.12723938 75.06640625 147.6875 C70.52412364 150.30058842 67.04613015 150.01649384 62.06640625 148.6875 C50.85835561 143.71036565 44.80239606 131.95018263 39.06640625 121.6875 C38.62425781 120.89859375 38.18210937 120.1096875 37.7265625 119.296875 C35.38948429 114.89265467 33.73224487 110.69082101 32.44140625 105.875 C28.3060713 91.62919306 19.72041716 78.30486269 12.06640625 65.6875 C10.97631636 67.86767978 10.78758334 69.40132165 10.5234375 71.81640625 C8.15221151 91.9472451 3.56952303 111.49180482 -2.93359375 130.6875 C-3.34920893 131.9660644 -3.76457127 133.24471102 -4.1796875 134.5234375 C-4.59347656 135.75320312 -5.00726563 136.98296875 -5.43359375 138.25 C-5.79453125 139.32378906 -6.15546875 140.39757812 -6.52734375 141.50390625 C-7.94148584 144.70536682 -9.62687882 147.1113553 -11.70263672 149.89477539 C-13.68292638 152.77880296 -14.93333491 155.89633381 -16.24609375 159.125 C-24.35273413 178.23303157 -34.23202848 197.92425566 -48.24609375 213.4375 C-51.39561199 216.92522154 -54.11382832 220.65783588 -56.80859375 224.5 C-60.58838146 229.88270432 -64.54798644 235.03258631 -68.76953125 240.08203125 C-71.59967414 243.48944156 -74.30728396 246.98841871 -77.01171875 250.49609375 C-80.81448408 254.83217373 -84.38447705 257.13890929 -89.93359375 258.6875 C-90.26359375 260.3375 -90.59359375 261.9875 -90.93359375 263.6875 C-89.94359375 263.6875 -88.95359375 263.6875 -87.93359375 263.6875 C-88.68359375 265.625 -88.68359375 265.625 -89.93359375 267.6875 C-90.59359375 267.831875 -91.25359375 267.97625 -91.93359375 268.125 C-92.59359375 268.310625 -93.25359375 268.49625 -93.93359375 268.6875 C-94.18947266 269.40123779 -94.44535156 270.11497559 -94.70898438 270.8503418 C-96.28718221 274.5066889 -98.73221336 276.89794881 -101.52734375 279.64453125 C-102.07467163 280.19235764 -102.62199951 280.74018402 -103.18591309 281.30461121 C-104.33893626 282.45530228 -105.49563347 283.60232225 -106.65576172 284.74584961 C-108.43641273 286.50278143 -110.20323984 288.27278921 -111.96875 290.04492188 C-113.0916559 291.16225487 -114.21532747 292.27881901 -115.33984375 293.39453125 C-115.87009155 293.92569046 -116.40033936 294.45684967 -116.94665527 295.00410461 C-120.70253538 298.6875 -120.70253538 298.6875 -122.93359375 298.6875 C-123.18109375 299.26886719 -123.42859375 299.85023438 -123.68359375 300.44921875 C-127.87401495 307.9526917 -136.98520329 312.97287376 -143.93359375 317.6875 C-145.02770097 318.46250655 -146.12006685 319.23997562 -147.2109375 320.01953125 C-147.77651367 320.42051025 -148.34208984 320.82148926 -148.92480469 321.23461914 C-150.53738946 322.3781432 -152.14766549 323.52492097 -153.7578125 324.671875 C-156.46799003 326.39198767 -159.01625218 327.54025533 -161.97753906 328.72631836 C-164.40798423 329.92060975 -166.46785263 331.42518335 -168.65625 333.01953125 C-173.94779216 336.82636013 -179.47208024 339.63264924 -185.37109375 342.375 C-186.33080078 342.83455078 -187.29050781 343.29410156 -188.27929688 343.76757812 C-193.92450633 346.43242111 -199.60249983 348.75794959 -205.50048828 350.80395508 C-207.85350416 351.65841669 -210.10273604 352.63088575 -212.37109375 353.6875 C-216.58773973 355.60348475 -220.87638044 357.06162132 -225.28515625 358.47265625 C-228.16044746 359.4300605 -230.99299065 360.43946651 -233.83203125 361.49609375 C-234.70303467 361.81537842 -235.57403809 362.13466309 -236.47143555 362.46362305 C-238.19842855 363.09837612 -239.92152089 363.74387654 -241.63989258 364.40161133 C-246.55377191 366.18869806 -250.66392817 367.01574414 -255.90087891 366.74682617 C-258.04924582 366.68412462 -259.99913373 366.92333313 -262.12109375 367.25 C-265.93359375 367.6875 -265.93359375 367.6875 -268.81054688 367.14770508 C-272.18659414 366.65021844 -274.41152756 366.97352729 -277.71484375 367.76171875 C-278.79805908 368.01542236 -279.88127441 368.26912598 -280.99731445 368.53051758 C-282.69827271 368.94853638 -282.69827271 368.94853638 -284.43359375 369.375 C-285.59528076 369.65174561 -286.75696777 369.92849121 -287.95385742 370.21362305 C-295.12324825 371.9406737 -302.23932764 373.78411835 -309.296875 375.92578125 C-316.88479866 378.11784809 -324.42009976 377.88292907 -332.24609375 377.875 C-332.96547119 377.8757251 -333.68484863 377.8764502 -334.42602539 377.87719727 C-344.71319385 377.87604593 -354.78919052 377.55620586 -364.93359375 375.6875 C-364.93359375 374.6975 -364.93359375 373.7075 -364.93359375 372.6875 C-364.27359375 372.3575 -363.61359375 372.0275 -362.93359375 371.6875 C-378.43912992 369.37963053 -378.43912992 369.37963053 -394.05859375 368.1875 C-403.5223909 367.76703511 -412.28403761 366.65788528 -419.93359375 360.6875 C-420.88234375 360.171875 -421.83109375 359.65625 -422.80859375 359.125 C-423.86046875 358.4134375 -423.86046875 358.4134375 -424.93359375 357.6875 C-424.93359375 356.6975 -424.93359375 355.7075 -424.93359375 354.6875 C-420.60665207 354.4862469 -416.86624534 354.88824579 -412.62109375 355.75 C-403.58156007 357.25133951 -394.54345579 356.45109905 -385.43359375 355.9765625 C-354.53900555 354.42739354 -354.53900555 354.42739354 -344.93359375 359.6875 C-344.60359375 359.0275 -344.27359375 358.3675 -343.93359375 357.6875 C-343.93359375 358.3475 -343.93359375 359.0075 -343.93359375 359.6875 C-328.11680211 358.07583647 -328.11680211 358.07583647 -312.640625 354.70703125 C-308.49834812 353.56779598 -304.4304261 352.96317943 -300.18359375 352.375 C-283.57704155 349.89777051 -264.97929142 346.16483952 -250.93359375 336.6875 C-250.27359375 336.6875 -249.61359375 336.6875 -248.93359375 336.6875 C-248.68351563 336.09582031 -248.4334375 335.50414062 -248.17578125 334.89453125 C-244.27665912 327.96684571 -235.31749629 324.07244176 -228.53515625 320.55859375 C-225.72118712 318.85913024 -225.72118712 318.85913024 -224.5859375 315.76171875 C-222.25666142 311.42805379 -219.17130161 310.20466159 -214.87109375 308.0625 C-198.06061036 299.20322021 -181.10806921 288.43050253 -167.9453125 274.60546875 C-165.65316578 272.42014052 -163.22059856 270.68255412 -160.62109375 268.875 C-155.25636573 265.10478836 -150.8982703 260.83750503 -146.359375 256.14453125 C-144.55405334 254.31595263 -142.84378469 252.72931132 -140.80859375 251.1875 C-136.23910528 247.21403177 -132.67952409 242.42724859 -128.93359375 237.6875 C-127.55972078 235.95743774 -126.18477455 234.22822706 -124.80859375 232.5 C-124.22851562 231.76394531 -123.6484375 231.02789062 -123.05078125 230.26953125 C-121.2846149 228.11559036 -119.47250803 226.0367162 -117.62109375 223.95703125 C-113.85136612 219.66659809 -110.42835365 215.17078741 -107.05859375 210.5625 C-106.14460815 209.31472778 -106.14460815 209.31472778 -105.2121582 208.04174805 C-97.82247517 197.8769002 -91.14527995 187.44306189 -85.2019043 176.36645508 C-83.33355046 172.93840884 -81.34212845 169.86181698 -78.91796875 166.796875 C-75.69213146 162.59936314 -73.78367964 158.22054746 -71.87109375 153.3125 C-71.18999572 151.62919636 -70.50642361 149.94689155 -69.8203125 148.265625 C-69.33570557 147.07356445 -69.33570557 147.07356445 -68.84130859 145.85742188 C-67.4267118 142.47578219 -65.79069008 139.22715885 -64.09741211 135.97875977 C-56.59391717 121.20630329 -46.93359375 101.53327951 -46.93359375 84.6875 C-47.38347656 85.16058594 -47.83335937 85.63367188 -48.296875 86.12109375 C-53.81734877 91.79645055 -59.77046324 96.73073458 -65.93359375 101.6875 C-71.29287982 106.08678669 -76.63743555 110.50513798 -81.80859375 115.125 C-95.17664614 126.8910957 -109.79742676 137.3355865 -124.93359375 146.6875 C-126.06544087 147.3992044 -127.19693489 148.11147056 -128.328125 148.82421875 C-129.48801863 149.5498991 -130.64817083 150.27516634 -131.80859375 151 C-132.85789062 151.65613281 -133.9071875 152.31226563 -134.98828125 152.98828125 C-139.10902539 155.36563364 -141.82619628 156.70626945 -146.62109375 156.625 C-147.71421875 156.645625 -148.80734375 156.66625 -149.93359375 156.6875 C-150.59359375 157.6775 -151.25359375 158.6675 -151.93359375 159.6875 C-152.92359375 159.6875 -153.91359375 159.6875 -154.93359375 159.6875 C-153.99614161 157.0914787 -153.13083226 154.94226641 -151.43359375 152.75 C-149.78235222 150.72928077 -149.78235222 150.72928077 -149.19140625 148.06640625 C-147.55599151 143.67313372 -145.07009573 140.32000914 -142.30859375 136.5625 C-141.21335671 135.04794923 -140.11961058 133.53231923 -139.02734375 132.015625 C-138.49496094 131.27763672 -137.96257812 130.53964844 -137.4140625 129.77929688 C-135.45437413 127.01039682 -133.6346092 124.1712619 -131.80859375 121.3125 C-125.72506146 112.14329979 -118.41663614 104.86820103 -109.80859375 98.08203125 C-104.49361229 93.65528718 -99.7574067 88.63570928 -94.93359375 83.6875 C-93.70769531 82.48673828 -93.70769531 82.48673828 -92.45703125 81.26171875 C-89.46473039 78.2092013 -86.69748727 75.00844808 -83.93359375 71.75 C-83.42570312 71.15509766 -82.9178125 70.56019531 -82.39453125 69.94726562 C-80.90311458 68.19771915 -79.41743002 66.44347762 -77.93359375 64.6875 C-77.48814209 64.16317383 -77.04269043 63.63884766 -76.58374023 63.09863281 C-73.91096794 59.92946666 -71.41138876 56.68107096 -68.99609375 53.3125 C-66.74259136 50.17354322 -64.46280073 47.08648838 -62.05859375 44.0625 C-58.99961195 40.03927394 -56.57121339 35.68656423 -54.05859375 31.3125 C-50.19115267 24.59582386 -45.98906497 18.57981794 -40.93359375 12.6875 C-40.51980469 12.10742188 -40.10601562 11.52734375 -39.6796875 10.9296875 C-36.63244477 6.70389444 -32.96580306 4.93923022 -28.3359375 2.86328125 C-25.90022482 1.76570351 -25.90022482 1.76570351 -23.859375 0.12109375 C-16.93934005 -5.03033186 -7.23562469 -3.85144798 0 0 Z " fill="#060606" transform="translate(424.93359375,62.3125)"/>
<path d="M0 0 C0 0.66 0 1.32 0 2 C-0.99 2 -1.98 2 -3 2 C-3 2.66 -3 3.32 -3 4 C-6.66305234 4.74926071 -9.42355152 5.2380014 -13 4 C-13 3.01 -13 2.02 -13 1 C-11.20843648 0.83222817 -9.4167455 0.66581706 -7.625 0.5 C-6.62726563 0.4071875 -5.62953125 0.314375 -4.6015625 0.21875 C-2 0 -2 0 0 0 Z " fill="#373737" transform="translate(73,434)"/>
<path d="M0 0 C0.99 0.33 1.98 0.66 3 1 C-0.3 3.64 -3.6 6.28 -7 9 C-7.66 8.67 -8.32 8.34 -9 8 C-7.87811441 6.85111717 -6.75238316 5.70598863 -5.625 4.5625 C-4.99851562 3.92441406 -4.37203125 3.28632813 -3.7265625 2.62890625 C-2 1 -2 1 0 0 Z " fill="#343434" transform="translate(283,315)"/>
<path d="M0 0 C0.66 1.32 1.32 2.64 2 4 C0.6875 6 0.6875 6 -1 8 C-1.99 8 -2.98 8 -4 8 C-2.87548273 5.0280615 -1.77706209 2.66559313 0 0 Z " fill="#6A6A6A" transform="translate(274,214)"/>
<path d="M0 0 C0.66 0.33 1.32 0.66 2 1 C2 1.99 2 2.98 2 4 C1.01 4.33 0.02 4.66 -1 5 C-1.33 3.68 -1.66 2.36 -2 1 C-1.34 0.67 -0.68 0.34 0 0 Z " fill="#4D4D4D" transform="translate(159,399)"/>
</svg>
