<?xml version="1.0" encoding="UTF-8"?>
<svg version="1.1" xmlns="http://www.w3.org/2000/svg" width="209" height="148">
<path d="M0 0 C68.97 0 137.94 0 209 0 C209 48.84 209 97.68 209 148 C140.03 148 71.06 148 0 148 C0 99.16 0 50.32 0 0 Z " fill="#FEFDFD" transform="translate(0,0)"/>
<path d="M0 0 C-2.9109683 2.9109683 -6.006946 2.38701521 -9.91796875 2.4921875 C-11.57082518 2.55510784 -13.22365643 2.6186921 -14.87646484 2.68286133 C-16.17786407 2.72898056 -16.17786407 2.72898056 -17.5055542 2.77603149 C-55.68006513 4.18473793 -97.28973341 10.86721905 -124.875 39.9375 C-130.504668 46.46392927 -133.87371761 52.66452003 -133.4375 61.45703125 C-132.06840797 69.41487866 -127.71402119 75.15898596 -121.5703125 80.1875 C-104.25107233 92.40045964 -83.29503775 94.42742179 -62.75 94.375 C-61.49293747 94.37368576 -61.49293747 94.37368576 -60.21047974 94.37234497 C-30.31816294 94.26951218 4.35114454 89.15480804 26.4609375 66.94921875 C33.03735011 59.31046257 36.47250393 50.61696348 36.33984375 40.59375 C35.51125082 34.2697764 31.12490468 29.38474915 26.2734375 25.5078125 C18.19694861 20.15124083 9.3728959 16.38554822 0 14 C-1.03640625 13.65324219 -2.0728125 13.30648437 -3.140625 12.94921875 C-7.93301318 11.77052409 -12.39523346 11.61710289 -17.3125 11.625 C-18.71145508 11.6252417 -18.71145508 11.6252417 -20.13867188 11.62548828 C-26.85027421 11.73719154 -32.08217223 12.7308774 -38 16 C-39.65975032 16.68370397 -41.32504345 17.35444383 -43 18 C-43.495 16.515 -43.495 16.515 -44 15 C-36.73399625 8.20277069 -28.12533126 7.43906568 -18.5625 7.5 C-16.98686279 7.50858032 -16.98686279 7.50858032 -15.37939453 7.51733398 C2.61823379 7.92369673 20.98055435 14.03062747 34 26.8359375 C34.99 27.90714844 34.99 27.90714844 36 29 C36.495 29.52851562 36.99 30.05703125 37.5 30.6015625 C41.71525743 36.3097236 40.67912714 44.32775092 40 51 C37.00843804 64.0460424 26.30085147 74.14912469 15.375 81.125 C8.88475069 84.82083642 1.99748793 87.45307522 -5 90 C-6.18980469 90.44472656 -7.37960938 90.88945313 -8.60546875 91.34765625 C-40.91074031 102.47918818 -81.42691338 104.20598051 -113 90 C-123.06487911 84.97341893 -131.32468003 79.32328978 -136.11328125 68.87109375 C-138.34377823 61.64900002 -138.24143501 53.83304974 -135.1875 46.875 C-123.4283192 26.7353326 -101.40364883 15.12537216 -80 8 C-78.92878906 7.63132812 -77.85757813 7.26265625 -76.75390625 6.8828125 C-73.200216 5.76059453 -69.6302552 4.83106257 -66 4 C-64.81905762 3.72494629 -64.81905762 3.72494629 -63.61425781 3.44433594 C-42.61391707 -1.20579571 -21.37312523 -0.40294486 0 0 Z " fill="#EB2E2F" transform="translate(155,26)"/>
<path d="M0 0 C0 1.32 0 2.64 0 4 C-34.24723448 17.38561348 -75.04090242 20.61593066 -110 8 C-109.34 6.68 -108.68 5.36 -108 4 C-107.12859375 4.26554687 -106.2571875 4.53109375 -105.359375 4.8046875 C-103.57273437 5.33449219 -103.57273437 5.33449219 -101.75 5.875 C-100.58984375 6.22304687 -99.4296875 6.57109375 -98.234375 6.9296875 C-86.76774625 9.97385101 -75.53519637 10.40377274 -63.75 10.375 C-62.49443298 10.37418427 -62.49443298 10.37418427 -61.21350098 10.37335205 C-41.71164771 10.3152361 -23.6617305 7.93869137 -5.2890625 1.171875 C-2 0 -2 0 0 0 Z " fill="#EB3635" transform="translate(156,110)"/>
<path d="M0 0 C1.41539063 0.39832031 1.41539063 0.39832031 2.859375 0.8046875 C4.1561631 1.16177408 5.45304324 1.5185265 6.75 1.875 C8.00296875 2.22304687 9.2559375 2.57109375 10.546875 2.9296875 C21.23547882 5.61785411 31.7575897 6.37084022 42.75 6.625 C44.14064609 6.66330444 45.53127162 6.70236271 46.921875 6.7421875 C50.28112457 6.83549999 53.64038202 6.92128895 57 7 C57 7.33 57 7.66 57 8 C49.08 8.33 41.16 8.66 33 9 C46.86 9.495 46.86 9.495 61 10 C61 10.33 61 10.66 61 11 C39.78208765 11.68745105 19.26506418 11.31319348 -1 4 C-0.67 2.68 -0.34 1.36 0 0 Z " fill="#EE595A" transform="translate(47,114)"/>
<path d="M0 0 C0 0.66 0 1.32 0 2 C-1.258125 2.29132812 -2.51625 2.58265625 -3.8125 2.8828125 C-14.89567295 5.51446822 -25.44717642 8.7110731 -36 13 C-36 12.34 -36 11.68 -36 11 C-36.99 10.67 -37.98 10.34 -39 10 C-31.11503859 6.66008185 -23.18915578 3.58021921 -15 1.0625 C-14.30720947 0.83925049 -13.61441895 0.61600098 -12.90063477 0.38598633 C-8.1085913 -1.03539718 -4.78426888 -1.0029522 0 0 Z " fill="#EB3737" transform="translate(96,31)"/>
<path d="M0 0 C-3.88664099 2.61218429 -7.98880926 2.25415198 -12.484375 2.1953125 C-13.29996887 2.1924826 -14.11556274 2.18965271 -14.95587158 2.18673706 C-17.55406528 2.17556558 -20.15191095 2.15046675 -22.75 2.125 C-24.51431793 2.11496627 -26.27864128 2.10584111 -28.04296875 2.09765625 C-32.36211273 2.07563619 -36.68099741 2.04112733 -41 2 C-38.46061896 -0.53938104 -37.43269006 -0.29509091 -33.90625 -0.4140625 C-32.875 -0.45273438 -31.84375 -0.49140625 -30.78125 -0.53125 C-29.6984375 -0.5621875 -28.615625 -0.593125 -27.5 -0.625 C-26.448125 -0.66367188 -25.39625 -0.70234375 -24.3125 -0.7421875 C-5.25919017 -1.40245071 -5.25919017 -1.40245071 0 0 Z " fill="#EA2222" transform="translate(119,122)"/>
<path d="M0 0 C3.03024682 0.90088419 4.67652428 1.58684025 6.6484375 4.10546875 C8.36575358 7.78330464 8.36436835 10.57926871 8.3125 14.625 C8.30863281 15.93726562 8.30476562 17.24953125 8.30078125 18.6015625 C8 22 8 22 6 25 C5.90203125 23.92621094 5.8040625 22.85242188 5.703125 21.74609375 C5.55292514 20.30980755 5.40183586 18.87361417 5.25 17.4375 C5.188125 16.73302734 5.12625 16.02855469 5.0625 15.30273438 C4.47156765 9.95972102 2.82755837 6.55742639 0 2 C0 1.34 0 0.68 0 0 Z " fill="#EA2425" transform="translate(187,55)"/>
<path d="M0 0 C-5.15133046 2.9436174 -11.44416424 3.60485866 -17.2734375 2.61328125 C-19.1875 2.0625 -19.1875 2.0625 -22 1 C-22 0.67 -22 0.34 -22 0 C-6.545 -3.08 -6.545 -3.08 0 0 Z " fill="#EC4142" transform="translate(134,120)"/>
<path d="M0 0 C0.99 0 1.98 0 3 0 C3 5.28 3 10.56 3 16 C1.68 15.67 0.36 15.34 -1 15 C-1.02685412 12.68756208 -1.04632841 10.3750373 -1.0625 8.0625 C-1.07410156 6.77472656 -1.08570312 5.48695312 -1.09765625 4.16015625 C-1 1 -1 1 0 0 Z " fill="#EA2525" transform="translate(19,77)"/>
<path d="M0 0 C7.92 0 15.84 0 24 0 C24 0.33 24 0.66 24 1 C21.69 1 19.38 1 17 1 C17 1.66 17 2.32 17 3 C10.90218999 3.22084624 5.78357065 3.01167675 0 1 C0 0.67 0 0.34 0 0 Z " fill="#EC393A" transform="translate(125,34)"/>
<path d="M0 0 C0 0.33 0 0.66 0 1 C-12.48519362 3.48063781 -12.48519362 3.48063781 -19 2 C-18.67 1.34 -18.34 0.68 -18 0 C-11.97894556 -1.43358439 -6.01134566 -1.45729592 0 0 Z " fill="#EA1D1D" transform="translate(113,29)"/>
<path d="M0 0 C5.44693314 -0.09688221 10.63904667 -0.12862175 16 1 C16 1.33 16 1.66 16 2 C10.68833136 3.32791716 5.24118425 3.74706142 0 2 C0 1.34 0 0.68 0 0 Z " fill="#EA1A1A" transform="translate(64,120)"/>
<path d="M0 0 C0.33 0.66 0.66 1.32 1 2 C-2.63465602 4.32617985 -5.76036719 4.31404687 -10 4 C-10.66 3.34 -11.32 2.68 -12 2 C-7.8803623 0.70756464 -4.33168317 -0.26252625 0 0 Z " fill="#EB2323" transform="translate(141,116)"/>
<path d="M0 0 C1.0828125 0.37125 1.0828125 0.37125 2.1875 0.75 C2.1875 1.41 2.1875 2.07 2.1875 2.75 C-4.5625 6.75 -4.5625 6.75 -6.8125 6.75 C-7.1425 5.76 -7.4725 4.77 -7.8125 3.75 C-3.50480769 -0.31153846 -3.50480769 -0.31153846 0 0 Z " fill="#EB3A39" transform="translate(118.8125,37.25)"/>
<path d="M0 0 C1.77049689 -0.05410687 3.54146849 -0.09284119 5.3125 -0.125 C6.29863281 -0.14820313 7.28476563 -0.17140625 8.30078125 -0.1953125 C11 0 11 0 14 2 C8.97874074 2.77916092 5.02296004 3.13016601 0 2 C0 1.34 0 0.68 0 0 Z " fill="#E91A19" transform="translate(142,35)"/>
<path d="M0 0 C0 1.32 0 2.64 0 4 C-2.8125 4.6875 -2.8125 4.6875 -6 5 C-7.875 3.5625 -7.875 3.5625 -9 2 C-3.375 0 -3.375 0 0 0 Z " fill="#EB403E" transform="translate(84,32)"/>
<path d="M0 0 C0 0.33 0 0.66 0 1 C-1.65 1 -3.3 1 -5 1 C-5 1.66 -5 2.32 -5 3 C-7.64 2.67 -10.28 2.34 -13 2 C-9.16001987 -2.17389144 -5.07563763 -0.9001665 0 0 Z " fill="#ED4141" transform="translate(69,119)"/>
<path d="M0 0 C0 0.99 0 1.98 0 3 C-3 5 -3 5 -7 5 C-5.22678182 1.07358831 -4.52021524 0 0 0 Z " fill="#EA2628" transform="translate(175,101)"/>
<path d="M0 0 C-0.99 0.495 -0.99 0.495 -2 1 C-2 1.66 -2 2.32 -2 3 C-4.97 2.67 -7.94 2.34 -11 2 C-6.80312837 -0.79791442 -4.79748656 -1.16695619 0 0 Z " fill="#EB3E3E" transform="translate(161,37)"/>
<path d="M0 0 C0 0.66 0 1.32 0 2 C-2.25 2.6875 -2.25 2.6875 -5 3 C-7.3125 1.5625 -7.3125 1.5625 -9 0 C-5.62182575 -0.84454356 -3.32534757 -1.10844919 0 0 Z " fill="#EC4142" transform="translate(147,115)"/>
<path d="M0 0 C-0.33 0.99 -0.66 1.98 -1 3 C-2.65 3.33 -4.3 3.66 -6 4 C-6 3.01 -6 2.02 -6 1 C-4 0 -4 0 0 0 Z " fill="#EA1E1E" transform="translate(60,42)"/>
<path d="M0 0 C2.97 0.495 2.97 0.495 6 1 C2.375 4 2.375 4 -1 4 C-0.67 2.68 -0.34 1.36 0 0 Z " fill="#EB2223" transform="translate(72,35)"/>
</svg>
