<svg width="179" height="101" viewBox="0 0 179 101" fill="none" xmlns="http://www.w3.org/2000/svg">
<path d="M137.651 0.319651C134.74 3.23062 131.644 2.70667 127.733 2.81184C126.08 2.87476 124.427 2.93834 122.774 3.00251C121.473 3.04863 121.473 3.04863 120.145 3.09568C81.9708 4.50439 40.3611 11.1869 12.7759 40.2571C7.14621 46.7836 3.77716 52.9842 4.21338 61.7767C5.58247 69.7345 9.93686 75.4786 16.0806 80.5071C33.3998 92.7201 54.3558 94.7471 74.9009 94.6946C76.1579 94.6933 76.1579 94.6933 77.4404 94.692C107.333 94.5892 142.002 89.4745 164.112 67.2689C170.688 59.6301 174.123 50.9366 173.991 40.9134C173.162 34.5894 168.776 29.7044 163.924 25.8275C155.848 20.4709 147.024 16.7052 137.651 14.3197C136.614 13.9729 135.578 13.6261 134.51 13.2689C129.718 12.0902 125.256 11.9368 120.338 11.9447C118.939 11.9449 118.939 11.9449 117.512 11.9451C110.801 12.0568 105.569 13.0505 99.6509 16.3197C97.9911 17.0034 96.3258 17.6741 94.6509 18.3197C94.1559 16.8347 94.1559 16.8347 93.6509 15.3197C100.917 8.52242 109.526 7.75872 119.088 7.81965C120.664 7.82823 120.664 7.82823 122.271 7.83698C140.269 8.24335 158.631 14.3503 171.651 27.1556C172.641 28.2268 172.641 28.2268 173.651 29.3197C174.146 29.8482 174.641 30.3767 175.151 30.9212C179.366 36.6294 178.33 44.6474 177.651 51.3196C174.659 64.3657 163.952 74.4688 153.026 81.4446C146.536 85.1405 139.648 87.7727 132.651 90.3196C131.461 90.7644 130.271 91.2091 129.045 91.6673C96.7401 102.799 56.224 104.526 24.6509 90.3196C14.586 85.2931 6.3262 79.6429 1.5376 69.1907C-0.692901 61.9686 -0.590558 54.1527 2.46338 47.1946C14.2226 27.055 36.2472 15.445 57.6509 8.31965C58.7221 7.95098 59.7933 7.58231 60.897 7.20246C64.4507 6.08025 68.0206 5.15071 71.6509 4.31965C72.8318 4.0446 72.8318 4.0446 74.0366 3.76399C95.037 -0.886145 116.278 -0.0832942 137.651 0.319651Z" fill="#676767"/>
</svg>
