<svg width="381" height="388" viewBox="0 0 381 388" fill="#DF0916" xmlns="http://www.w3.org/2000/svg">
<path d="M208.283 4.35332C209.095 7.47832 209.095 7.47832 209.283 10.3533C205.37 13.9645 202.299 15.1007 197.095 16.0643C196.404 16.1976 195.713 16.331 195.001 16.4684C193.526 16.7525 192.051 17.0306 190.574 17.3033C186.712 18.0197 182.861 18.7894 179.009 19.5604C178.25 19.7118 177.49 19.8633 176.708 20.0194C167.396 21.9008 158.307 24.3923 149.283 27.3533C148.592 27.5781 147.901 27.8029 147.189 28.0345C124.415 35.6077 104.29 47.9211 85.8314 63.0833C84.4459 64.2194 83.0449 65.3365 81.6419 66.451C54.166 89.451 35.9718 128.929 29.2825 163.353C29.1203 164.17 28.958 164.987 28.7908 165.828C22.4066 199.739 25.1794 236.272 34.2825 269.353C34.4651 270.022 34.6477 270.691 34.8358 271.381C39.572 288.209 47.5788 304.548 58.2825 318.353C59.0121 319.315 59.7417 320.277 60.4935 321.267C81.0821 347.491 113.696 361.146 146.143 365.134C173.982 367.986 202.646 364.599 229.283 356.353C230.067 356.113 230.852 355.872 231.66 355.624C262.6 345.944 290.718 329.607 314.283 307.353C315.08 306.62 315.878 305.886 316.701 305.131C343.179 279.915 361.053 241.984 362.283 205.353C362.334 204.133 362.386 202.912 362.439 201.654C363.619 160.667 346.682 127.827 319.283 98.3533C318.349 97.3382 318.349 97.3382 317.396 96.3025C295.885 73.7991 264.161 57.881 233.283 54.3533C232.434 54.2438 231.586 54.1342 230.712 54.0213C190.901 49.5648 146.368 59.0196 113.72 82.8533C80.2537 109.607 58.2936 147.943 52.6263 190.666C50.2881 215.748 51.8955 237.736 62.095 261.041C64.1316 265.722 65.8108 270.177 65.2825 275.353C63.72 278.416 63.72 278.416 61.2825 280.353C58.0498 281.235 56.2959 280.909 53.3646 279.303C40.42 269.613 35.8059 247.417 33.6185 232.228C27.9308 183.552 42.2666 132.659 72.1575 93.5408C73.843 91.4498 75.5354 89.3904 77.2825 87.3533C77.7492 86.8084 78.2158 86.2634 78.6966 85.702C107.151 52.8924 145.519 36.5164 188.283 33.3533C232.268 30.3714 278.437 40.1213 314.283 67.3533C315.363 68.1518 316.444 68.95 317.525 69.7479C327.318 77.0595 336.574 84.8245 344.283 94.3533C345.439 95.7706 345.439 95.7706 346.618 97.2166C375.05 132.724 384.317 176.172 379.81 220.959C379.254 225.172 378.367 229.248 377.283 233.353C377.089 234.119 376.896 234.884 376.697 235.672C365.845 277.695 340.84 317.821 306.283 344.353C305.271 345.132 304.259 345.911 303.216 346.713C275.537 367.474 244.02 378.989 210.283 385.353C209.342 385.542 208.402 385.732 207.434 385.926C198 387.63 188.639 387.692 179.084 387.669C176.315 387.666 173.547 387.689 170.779 387.715C123.375 387.884 81.1974 371.472 47.2825 338.353C17.9188 308.731 0.446914 267.001 0.0442486 225.236C0.0344094 224.39 0.0245702 223.543 0.0144329 222.671C-0.430853 174.367 9.36349 128.132 38.2825 88.3533C38.9657 87.3981 39.6489 86.4429 40.3528 85.4588C52.9265 68.2658 67.1059 52.999 84.2825 40.3533C84.8383 39.9373 85.394 39.5212 85.9666 39.0926C109.834 21.4247 177.725 -11.9262 208.283 4.35332Z"/>
</svg>
