<svg width="501" height="382" viewBox="0 0 501 382" fill="none" xmlns="http://www.w3.org/2000/svg">
<path d="M424.934 3.32709C428.224 6.01407 430.353 9.49402 432.64 13.0246C435.403 17.2756 438.413 20.5952 442.09 24.0458C444.958 27.0016 447.126 30.3671 449.418 33.7763C451.017 36.1728 451.017 36.1728 453.5 38.5146C458.214 43.229 461.963 48.7627 464.816 54.7802C467.154 59.5584 470.205 63.6972 473.375 67.9521C475.598 70.9623 477.809 73.9808 480 77.0146C480.535 77.752 481.07 78.4894 481.621 79.2492C485.261 84.4545 487.684 89.5608 489.688 95.5771C489.984 96.4455 490.281 97.3139 490.587 98.2087C492.774 104.819 494.209 111.349 495.312 118.214C496.021 122.129 497.057 125.827 498.188 129.64C500.233 136.944 500.419 143.454 500 151.015C495.458 153.628 491.98 153.344 487 152.015C475.792 147.037 469.736 135.277 464 125.015C463.558 124.226 463.116 123.437 462.66 122.624C460.323 118.22 458.666 114.018 457.375 109.202C453.24 94.9563 444.654 81.632 437 69.0146C435.91 71.1948 435.721 72.7284 435.457 75.1435C433.086 95.2743 428.503 114.819 422 134.015C421.584 135.293 421.169 136.572 420.754 137.851C420.34 139.08 419.926 140.31 419.5 141.577C419.139 142.651 418.778 143.725 418.406 144.831C416.992 148.032 415.307 150.438 413.231 153.222C411.251 156.106 410 159.223 408.688 162.452C400.581 181.56 390.702 201.251 376.688 216.765C373.538 220.252 370.82 223.985 368.125 227.827C364.345 233.21 360.386 238.36 356.164 243.409C353.334 246.817 350.626 250.316 347.922 253.823C344.119 258.159 340.549 260.466 335 262.015C334.67 263.665 334.34 265.315 334 267.015C334.99 267.015 335.98 267.015 337 267.015C336.25 268.952 336.25 268.952 335 271.015C334.34 271.159 333.68 271.303 333 271.452C332.34 271.638 331.68 271.823 331 272.015C330.744 272.728 330.488 273.442 330.225 274.177C328.646 277.834 326.201 280.225 323.406 282.972C322.859 283.519 322.312 284.067 321.748 284.632C320.595 285.782 319.438 286.929 318.278 288.073C316.497 289.83 314.73 291.6 312.965 293.372C311.842 294.489 310.718 295.606 309.594 296.722C309.064 297.253 308.533 297.784 307.987 298.331C304.231 302.015 304.231 302.015 302 302.015C301.752 302.596 301.505 303.177 301.25 303.776C297.06 311.28 287.948 316.3 281 321.015C279.906 321.79 278.814 322.567 277.723 323.347C277.157 323.748 276.592 324.149 276.009 324.562C274.396 325.705 272.786 326.852 271.176 327.999C268.466 329.719 265.917 330.867 262.956 332.053C260.526 333.248 258.466 334.752 256.277 336.347C250.986 340.153 245.462 342.96 239.562 345.702C238.603 346.162 237.643 346.621 236.654 347.095C231.009 349.76 225.331 352.085 219.433 354.131C217.08 354.986 214.831 355.958 212.562 357.015C208.346 358.931 204.057 360.389 199.648 361.8C196.773 362.757 193.941 363.767 191.102 364.823C190.231 365.142 189.36 365.462 188.462 365.791C186.735 366.425 185.012 367.071 183.294 367.729C178.38 369.516 174.27 370.343 169.033 370.074C166.884 370.011 164.934 370.25 162.812 370.577C159 371.015 159 371.015 156.123 370.475C152.747 369.977 150.522 370.301 147.219 371.089C146.136 371.343 145.052 371.596 143.936 371.858C142.235 372.276 142.235 372.276 140.5 372.702C139.338 372.979 138.177 373.256 136.98 373.541C129.81 375.268 122.694 377.111 115.637 379.253C108.049 381.445 100.513 381.21 92.6875 381.202C91.9681 381.203 91.2487 381.204 90.5076 381.204C80.2204 381.203 70.1444 380.883 60 379.015C60 378.025 60 377.035 60 376.015C60.66 375.685 61.32 375.355 62 375.015C46.4945 372.707 46.4945 372.707 30.875 371.515C21.4112 371.094 12.6496 369.985 5 364.015C4.05125 363.499 3.1025 362.983 2.125 362.452C1.07313 361.741 1.07313 361.741 0 361.015C0 360.025 0 359.035 0 358.015C4.32694 357.813 8.06735 358.215 12.3125 359.077C21.352 360.578 30.3901 359.778 39.5 359.304C70.3946 357.754 70.3946 357.754 80 363.015C80.33 362.355 80.66 361.695 81 361.015C81 361.675 81 362.335 81 363.015C96.8168 361.403 96.8168 361.403 112.293 358.034C116.435 356.895 120.503 356.29 124.75 355.702C141.357 353.225 159.954 349.492 174 340.015C174.66 340.015 175.32 340.015 176 340.015C176.25 339.423 176.5 338.831 176.758 338.222C180.657 331.294 189.616 327.4 196.398 323.886C199.212 322.186 199.212 322.186 200.348 319.089C202.677 314.755 205.762 313.532 210.062 311.39C226.873 302.53 243.826 291.758 256.988 277.933C259.28 275.747 261.713 274.01 264.312 272.202C269.677 268.432 274.035 264.165 278.574 259.472C280.38 257.643 282.09 256.056 284.125 254.515C288.694 250.541 292.254 245.754 296 241.015C297.374 239.285 298.749 237.555 300.125 235.827C300.705 235.091 301.285 234.355 301.883 233.597C303.649 231.443 305.461 229.364 307.312 227.284C311.082 222.994 314.505 218.498 317.875 213.89C318.789 212.642 318.789 212.642 319.721 211.369C327.111 201.204 333.788 190.77 339.732 179.694C341.6 176.265 343.591 173.189 346.016 170.124C349.241 165.926 351.15 161.548 353.062 156.64C353.744 154.956 354.427 153.274 355.113 151.593C355.598 150.401 355.598 150.401 356.092 149.185C357.507 145.803 359.143 142.554 360.836 139.306C368.34 124.533 378 104.86 378 88.0146C377.55 88.4877 377.1 88.9608 376.637 89.4482C371.116 95.1235 365.163 100.058 359 105.015C353.641 109.414 348.296 113.832 343.125 118.452C329.757 130.218 315.136 140.663 300 150.015C298.868 150.726 297.737 151.439 296.605 152.151C295.446 152.877 294.285 153.602 293.125 154.327C292.076 154.983 291.026 155.639 289.945 156.315C285.825 158.693 283.107 160.033 278.312 159.952C277.219 159.973 276.126 159.993 275 160.015C274.34 161.005 273.68 161.995 273 163.015C272.01 163.015 271.02 163.015 270 163.015C270.937 160.419 271.803 158.269 273.5 156.077C275.151 154.056 275.151 154.056 275.742 151.393C277.378 147 279.863 143.647 282.625 139.89C283.72 138.375 284.814 136.859 285.906 135.343C286.439 134.605 286.971 133.867 287.52 133.106C289.479 130.337 291.299 127.498 293.125 124.64C299.209 115.47 306.517 108.195 315.125 101.409C320.44 96.9824 325.176 91.9628 330 87.0146C331.226 85.8138 331.226 85.8138 332.477 84.5888C335.469 81.5363 338.236 78.3355 341 75.0771C341.508 74.4822 342.016 73.8873 342.539 73.2744C344.03 71.5248 345.516 69.7706 347 68.0146C347.445 67.4903 347.891 66.9659 348.35 66.4257C351.023 63.2566 353.522 60.0082 355.938 56.6396C358.191 53.5006 360.471 50.4136 362.875 47.3896C365.934 43.3664 368.362 39.0137 370.875 34.6396C374.742 27.9229 378.945 21.9069 384 16.0146C384.414 15.4345 384.828 14.8544 385.254 14.2568C388.301 10.031 391.968 8.26632 396.598 6.19037C399.033 5.09279 399.033 5.0928 401.074 3.44819C407.994 -1.70324 417.698 -0.524357 424.934 3.32709Z" fill="#060606"/>
</svg>
