<svg width="547" height="128" viewBox="0 0 547 128" fill="none" xmlns="http://www.w3.org/2000/svg">
<path d="M169.178 11V55.268H177.486V25.818L187.654 55.268H194.846L204.952 25.756V55.268H213.446V11H202.658L191.312 44.046L180.276 11H169.178Z" fill="#215AC9"/>
<path d="M257.41 11V55.268H266.09V11H257.41Z" fill="#215AC9"/>
<path d="M273.816 11V55.268H282.248V51.672C283.612 53.408 285.162 54.648 286.774 55.268C288.386 55.95 290.06 56.26 291.796 56.26C293.966 56.26 295.95 55.888 297.686 55.02C299.422 54.214 300.848 53.036 302.088 51.548C303.328 50.06 304.258 48.2 304.878 46.092C305.498 43.984 305.87 41.69 305.87 39.086C305.87 33.754 304.754 29.6 302.522 26.5C300.29 23.462 296.88 21.912 292.416 21.912C288.2 21.912 284.914 23.586 282.496 26.81V11H273.816ZM282.434 39.334V38.342C282.434 36.482 282.62 34.994 282.992 33.754C283.364 32.576 283.984 31.584 284.852 30.778C285.596 30.158 286.34 29.724 287.146 29.414C287.89 29.166 288.82 28.98 289.936 28.98C290.866 28.98 291.734 29.166 292.602 29.538C293.47 29.91 294.214 30.468 294.834 31.274C295.454 32.08 295.888 33.134 296.26 34.374C296.632 35.676 296.818 37.288 296.818 39.148C296.818 41.008 296.632 42.558 296.26 43.798C295.888 45.1 295.33 46.154 294.71 46.96C294.09 47.766 293.346 48.324 292.478 48.696C291.61 49.068 290.68 49.254 289.75 49.254C288.882 49.254 288.014 49.192 287.146 48.944C286.278 48.696 285.472 48.2 284.666 47.456C283.86 46.712 283.302 45.658 282.93 44.418C282.558 43.178 282.434 41.442 282.434 39.334Z" fill="#215AC9"/>
<path d="M327.697 56.26C330.177 56.26 332.409 55.888 334.455 55.082C336.439 54.338 338.175 53.16 339.601 51.672C341.027 50.184 342.143 48.386 342.887 46.278C343.631 44.17 344.065 41.752 344.065 39.024C344.065 36.42 343.693 34.002 342.949 31.894C342.205 29.786 341.089 27.988 339.663 26.5C338.237 25.012 336.501 23.896 334.517 23.09C332.471 22.346 330.177 21.912 327.697 21.912C325.217 21.912 322.923 22.346 320.939 23.09C318.893 23.896 317.157 25.012 315.731 26.5C314.305 27.988 313.189 29.786 312.445 31.894C311.701 34.002 311.329 36.42 311.329 39.024C311.329 44.604 312.755 48.82 315.607 51.796C318.459 54.772 322.489 56.26 327.697 56.26ZM327.697 49.316C325.155 49.316 323.295 48.448 322.117 46.712C320.877 44.976 320.319 42.372 320.319 39.024C320.319 35.738 320.877 33.196 322.117 31.46C323.357 29.724 325.217 28.856 327.697 28.856C330.177 28.856 331.975 29.724 333.215 31.46C334.455 33.196 335.075 35.738 335.075 39.024C335.075 42.372 334.455 44.914 333.215 46.65C331.975 48.448 330.177 49.316 327.697 49.316Z" fill="#215AC9"/>
<path d="M350.34 22.904V44.294C350.34 48.448 351.208 51.486 352.944 53.408C354.68 55.33 357.346 56.26 361.066 56.26C362.926 56.26 364.724 55.826 366.398 54.958C368.072 54.09 369.56 52.726 370.924 50.804V55.268H379.356V22.904H370.676V42.372C370.676 43.364 370.428 44.232 370.056 45.038C369.684 45.844 369.126 46.526 368.506 47.084C367.824 47.704 367.142 48.2 366.398 48.51C365.654 48.882 364.786 49.006 363.67 49.006C362.182 49.006 361.066 48.634 360.26 47.828C359.392 47.022 359.02 45.472 359.02 43.116V22.904H350.34Z" fill="#215AC9"/>
<path d="M387.039 22.904V55.268H395.719V36.544C395.719 35.676 395.843 34.87 396.215 34.002C396.587 33.196 397.145 32.452 397.889 31.77C398.571 31.15 399.377 30.778 400.245 30.53C401.113 30.282 401.981 30.158 402.973 30.158C404.399 30.158 405.639 30.282 406.631 30.53L407.685 22.656C407.251 22.594 406.755 22.532 406.259 22.47C405.701 22.408 405.019 22.346 404.213 22.346C402.477 22.346 400.865 22.78 399.377 23.648C397.827 24.516 396.525 25.756 395.471 27.43V22.904H387.039Z" fill="#215AC9"/>
<path d="M413.014 22.904V55.268H421.694V35.8C421.694 34.87 421.88 34.002 422.252 33.196C422.624 32.39 423.12 31.708 423.74 31.088C424.422 30.468 425.166 30.034 425.972 29.662C426.778 29.352 427.77 29.166 428.886 29.166C430.312 29.166 431.49 29.6 432.358 30.406C433.226 31.274 433.66 32.824 433.66 35.056V55.268H442.34V33.878C442.34 29.786 441.41 26.748 439.674 24.826C437.876 22.904 435.148 21.912 431.49 21.912C429.568 21.912 427.708 22.346 425.972 23.214C424.236 24.082 422.686 25.508 421.446 27.368V22.904H413.014Z" fill="#215AC9"/>
<path d="M479 46L472 45.162C471.343 48.1667 468.243 49.502 464.833 49.502C462.353 49.502 460.493 48.82 459.253 47.332C458.013 45.844 457.331 43.798 457.269 41.194H479.713V37.722C479.713 32.886 478.411 29.042 475.931 26.19C473.451 23.338 469.731 21.912 464.771 21.912C462.353 21.912 460.183 22.346 458.199 23.09C456.215 23.834 454.479 24.95 453.053 26.438C451.627 27.926 450.511 29.786 449.767 31.894C448.961 34.002 448.589 36.42 448.589 39.148C448.589 44.604 449.891 48.82 452.619 51.796C455.347 54.772 459.377 56.26 464.771 56.26C469.235 56.26 472.583 55.33 474.939 53.47C477.295 51.61 478.38 49.658 479 46ZM471.343 35.49H457.393C457.393 34.498 457.579 33.63 457.951 32.762C458.261 31.894 458.695 31.15 459.315 30.53C459.935 29.91 460.679 29.352 461.547 28.98C462.415 28.608 463.407 28.422 464.585 28.422C466.879 28.422 468.553 29.042 469.669 30.282C470.785 31.522 471.343 33.258 471.343 35.49Z" fill="#215AC9"/>
<path d="M205.82 100.698H199.93C199.682 102.31 199.248 103.736 198.752 105.038C198.194 106.402 197.45 107.518 196.52 108.448C195.59 109.44 194.412 110.184 192.986 110.68C191.56 111.176 189.824 111.424 187.84 111.424C185.608 111.424 183.624 110.99 181.888 110.122C180.152 109.254 178.726 108.014 177.548 106.402C176.37 104.79 175.502 102.868 174.882 100.636C174.262 98.404 173.952 95.862 173.952 93.134C173.952 90.406 174.262 87.926 174.882 85.694C175.502 83.462 176.37 81.54 177.548 79.928C178.726 78.316 180.152 77.076 181.888 76.208C183.624 75.34 185.546 74.844 187.778 74.844C189.638 74.844 191.188 75.092 192.49 75.588C193.792 76.084 194.908 76.766 195.838 77.634C196.768 78.564 197.512 79.68 198.132 80.982C198.752 82.284 199.248 83.71 199.62 85.322L205.2 84.392C204.704 82.284 204.084 80.3 203.216 78.502C202.348 76.766 201.232 75.216 199.868 73.914C198.504 72.674 196.83 71.682 194.846 70.938C192.862 70.256 190.506 69.884 187.778 69.884C184.926 69.884 182.322 70.442 179.904 71.434C177.486 72.488 175.378 73.976 173.642 75.96C171.844 77.944 170.48 80.424 169.488 83.276C168.496 86.19 168 89.476 168 93.196C168 96.916 168.434 100.202 169.364 103.054C170.294 105.906 171.596 108.324 173.332 110.308C175.006 112.292 177.052 113.842 179.532 114.834C181.95 115.888 184.678 116.384 187.778 116.384C190.568 116.384 193.048 116.012 195.156 115.206C197.264 114.462 199.124 113.346 200.612 111.92C202.1 110.556 203.278 108.882 204.146 106.96C205.014 105.038 205.572 102.93 205.82 100.698Z" fill="#215AC9"/>
<path d="M246.185 83.214V127.296H251.579V111.3C252.943 113.16 254.555 114.462 256.291 115.206C258.027 115.95 259.825 116.26 261.685 116.26C263.855 116.26 265.839 115.888 267.575 115.082C269.311 114.276 270.861 113.098 272.101 111.61C273.341 110.122 274.271 108.324 274.953 106.216C275.573 104.108 275.945 101.69 275.945 99.024C275.945 96.544 275.635 94.312 275.077 92.266C274.519 90.22 273.651 88.422 272.535 86.934C271.419 85.446 269.993 84.33 268.257 83.462C266.521 82.656 264.537 82.222 262.305 82.222C259.949 82.222 257.841 82.718 256.105 83.648C254.369 84.64 252.819 86.004 251.517 87.802V83.214H246.185ZM251.517 100.14V97.97C251.517 96.11 251.765 94.498 252.261 93.072C252.757 91.646 253.439 90.468 254.307 89.538C255.175 88.608 256.229 87.926 257.469 87.43C258.647 86.934 259.949 86.686 261.375 86.686C262.491 86.686 263.545 86.934 264.599 87.306C265.653 87.74 266.583 88.422 267.451 89.352C268.257 90.344 268.939 91.584 269.435 93.196C269.931 94.808 270.241 96.73 270.241 99.086C270.241 101.442 269.993 103.364 269.497 104.976C269.001 106.588 268.381 107.952 267.575 108.944C266.707 109.936 265.715 110.68 264.599 111.114C263.483 111.61 262.243 111.796 260.941 111.796C259.577 111.796 258.275 111.61 257.159 111.176C255.981 110.742 254.989 110.06 254.183 109.068C253.315 108.138 252.695 106.96 252.199 105.472C251.703 103.984 251.517 102.248 251.517 100.14Z" fill="#215AC9"/>
<path d="M283.303 83.214V115.268H288.697V83.214H283.303ZM283.117 71V77.262H288.883V71H283.117Z" fill="#215AC9"/>
<path d="M298.965 87.492V104.852C298.965 106.464 299.027 107.952 299.275 109.316C299.523 110.68 299.957 111.858 300.639 112.85C301.259 113.842 302.189 114.648 303.305 115.144C304.421 115.702 305.847 115.95 307.707 115.95C309.009 115.95 310.125 115.888 311.117 115.702C312.109 115.516 312.977 115.268 313.845 114.958L312.915 110.804C312.295 111.052 311.675 111.176 310.993 111.3C310.311 111.424 309.505 111.486 308.637 111.486C307.149 111.486 306.095 111.052 305.413 110.06C304.669 109.13 304.359 107.89 304.359 106.278V87.492H312.853V83.214H304.359V74.472H298.965V83.214H294.005V87.492H298.965Z" fill="#215AC9"/>
<path d="M352.084 71V115.268H357.478V71H352.084Z" fill="#215AC9"/>
<path d="M424.072 83.214V115.268H429.466V96.234C429.466 94.87 429.714 93.692 430.21 92.638C430.706 91.646 431.45 90.716 432.38 89.91C433.248 89.104 434.24 88.546 435.294 88.174C436.286 87.802 437.34 87.616 438.332 87.616C438.828 87.616 439.262 87.678 439.696 87.74C440.068 87.802 440.502 87.864 440.936 87.926L441.618 82.904C440.812 82.78 439.882 82.656 438.766 82.656C436.906 82.656 435.232 83.152 433.62 84.082C432.008 85.074 430.582 86.438 429.404 88.174V83.214H424.072Z" fill="#215AC9"/>
<path d="M459.405 116.26C461.761 116.26 463.931 115.888 465.915 115.082C467.837 114.276 469.449 113.098 470.813 111.61C472.177 110.122 473.169 108.324 473.913 106.216C474.657 104.108 475.029 101.752 475.029 99.086C475.029 96.482 474.657 94.188 473.975 92.08C473.231 90.034 472.239 88.298 470.875 86.81C469.511 85.322 467.899 84.206 466.039 83.4C464.117 82.656 461.947 82.222 459.591 82.222C457.235 82.222 455.065 82.656 453.143 83.462C451.221 84.268 449.609 85.384 448.245 86.872C446.881 88.36 445.827 90.158 445.083 92.266C444.339 94.374 443.967 96.73 443.967 99.334C443.967 101.938 444.277 104.294 445.021 106.402C445.703 108.51 446.695 110.308 448.059 111.734C449.361 113.222 450.973 114.338 452.895 115.082C454.755 115.888 456.925 116.26 459.405 116.26ZM459.467 111.796C457.731 111.796 456.243 111.486 455.003 110.866C453.763 110.246 452.709 109.378 451.965 108.262C451.159 107.146 450.601 105.844 450.229 104.294C449.857 102.806 449.671 101.07 449.671 99.21C449.671 97.35 449.857 95.676 450.229 94.126C450.601 92.638 451.159 91.336 451.965 90.22C452.771 89.104 453.763 88.236 455.003 87.616C456.243 86.996 457.731 86.686 459.467 86.686C461.203 86.686 462.691 86.996 463.931 87.616C465.171 88.236 466.163 89.104 466.969 90.22C467.775 91.336 468.395 92.638 468.767 94.126C469.139 95.676 469.325 97.35 469.325 99.148C469.325 101.008 469.139 102.744 468.767 104.294C468.395 105.844 467.775 107.146 466.969 108.262C466.163 109.378 465.171 110.246 463.931 110.866C462.691 111.486 461.203 111.796 459.467 111.796Z" fill="#215AC9"/>
<path d="M482.071 83.214V104.48C482.071 108.448 482.877 111.362 484.489 113.346C486.101 115.33 488.767 116.26 492.425 116.26C494.533 116.26 496.455 115.826 498.315 114.834C500.113 113.904 501.787 112.416 503.399 110.308V115.268H508.731V83.214H503.337V102.186C503.337 103.798 503.027 105.162 502.531 106.154C501.973 107.146 501.167 108.138 500.175 109.006C498.191 110.742 496.021 111.61 493.665 111.61C491.433 111.61 489.883 110.99 488.891 109.75C487.899 108.51 487.465 106.402 487.465 103.426V83.214H482.071Z" fill="#215AC9"/>
<path d="M517.011 83.214V127.296H522.405V111.3C523.769 113.16 525.381 114.462 527.117 115.206C528.853 115.95 530.651 116.26 532.511 116.26C534.681 116.26 536.665 115.888 538.401 115.082C540.137 114.276 541.687 113.098 542.927 111.61C544.167 110.122 545.097 108.324 545.779 106.216C546.399 104.108 546.771 101.69 546.771 99.024C546.771 96.544 546.461 94.312 545.903 92.266C545.345 90.22 544.477 88.422 543.361 86.934C542.245 85.446 540.819 84.33 539.083 83.462C537.347 82.656 535.363 82.222 533.131 82.222C530.775 82.222 528.667 82.718 526.931 83.648C525.195 84.64 523.645 86.004 522.343 87.802V83.214H517.011ZM522.343 100.14V97.97C522.343 96.11 522.591 94.498 523.087 93.072C523.583 91.646 524.265 90.468 525.133 89.538C526.001 88.608 527.055 87.926 528.295 87.43C529.473 86.934 530.775 86.686 532.201 86.686C533.317 86.686 534.371 86.934 535.425 87.306C536.479 87.74 537.409 88.422 538.277 89.352C539.083 90.344 539.765 91.584 540.261 93.196C540.757 94.808 541.067 96.73 541.067 99.086C541.067 101.442 540.819 103.364 540.323 104.976C539.827 106.588 539.207 107.952 538.401 108.944C537.533 109.936 536.541 110.68 535.425 111.114C534.309 111.61 533.069 111.796 531.767 111.796C530.403 111.796 529.101 111.61 527.985 111.176C526.807 110.742 525.815 110.06 525.009 109.068C524.141 108.138 523.521 106.96 523.025 105.472C522.529 103.984 522.343 102.248 522.343 100.14Z" fill="#215AC9"/>
<path d="M250.911 46L243.911 45.162C243.254 48.1667 240.154 49.502 236.744 49.502C234.264 49.502 232.404 48.82 231.164 47.332C229.924 45.844 229.242 43.798 229.18 41.194H251.624V37.722C251.624 32.886 250.322 29.042 247.842 26.19C245.362 23.338 241.642 21.912 236.682 21.912C234.264 21.912 232.094 22.346 230.11 23.09C228.126 23.834 226.39 24.95 224.964 26.438C223.538 27.926 222.422 29.786 221.678 31.894C220.872 34.002 220.5 36.42 220.5 39.148C220.5 44.604 221.802 48.82 224.53 51.796C227.258 54.772 231.288 56.26 236.682 56.26C241.146 56.26 244.494 55.33 246.85 53.47C249.206 51.61 250.291 49.658 250.911 46ZM243.254 35.49H229.304C229.304 34.498 229.49 33.63 229.862 32.762C230.172 31.894 230.606 31.15 231.226 30.53C231.846 29.91 232.59 29.352 233.458 28.98C234.326 28.608 235.318 28.422 236.496 28.422C238.79 28.422 240.464 29.042 241.58 30.282C242.696 31.522 243.254 33.258 243.254 35.49Z" fill="#215AC9"/>
<path fill-rule="evenodd" clip-rule="evenodd" d="M232.854 110.822L232.847 110.822C231.661 112.257 230.164 113.505 228.417 114.503C226.608 115.501 224.362 116 221.742 116C220.12 116 218.623 115.813 217.25 115.439C215.878 115.064 214.755 114.44 213.757 113.629C212.759 112.818 212.01 111.82 211.511 110.572C210.949 109.387 210.7 107.952 210.7 106.33C210.7 104.147 211.137 102.338 212.072 100.965C213.008 99.5927 214.256 98.5321 215.816 97.7211C217.375 96.9725 219.122 96.411 221.118 96.0367C223.052 95.7248 225.049 95.5376 227.17 95.4128L232.722 95.2257V93.978C232.722 91.233 232.098 89.2991 230.975 88.0514C229.79 86.8661 227.918 86.2422 225.298 86.2422C222.678 86.2422 220.806 86.6789 219.621 87.5523C218.373 88.4257 217.625 89.5486 217.25 91.0459L212.322 90.4844C212.883 87.5523 214.256 85.4312 216.502 84.0587C218.685 82.6862 221.68 82 225.485 82C227.794 82 229.727 82.3119 231.349 82.8734C232.972 83.4349 234.282 84.2459 235.28 85.244C236.278 86.3046 236.964 87.6147 237.401 89.1119C237.838 90.6716 238.087 92.4184 238.087 94.2899V108.271L238.092 108.271C238.092 109.539 238.239 110.952 240.627 110.952H241.797V115.193H239.36C238.989 115.193 238.555 115.188 238.087 115.152V115.251L238.063 115.15C236.997 115.064 235.757 114.812 234.68 114.072C233.433 113.214 232.926 111.569 232.828 110.855L232.854 110.822ZM232.722 102.712V99.0936L227.544 99.2807C225.298 99.4055 223.489 99.5927 222.054 99.9046C220.557 100.279 219.434 100.716 218.561 101.277C217.687 101.839 217.126 102.525 216.751 103.336C216.377 104.209 216.252 105.145 216.252 106.206C216.252 107.828 216.689 109.138 217.687 110.136C218.685 111.134 220.307 111.571 222.553 111.571C225.735 111.571 228.23 110.822 230.039 109.2C231.786 107.64 232.722 105.457 232.722 102.712Z" fill="#215AC9"/>
<path fill-rule="evenodd" clip-rule="evenodd" d="M338.454 110.822L338.447 110.822C337.262 112.257 335.764 113.505 334.017 114.503C332.208 115.501 329.962 116 327.342 116C325.72 116 324.223 115.813 322.851 115.439C321.478 115.064 320.355 114.44 319.357 113.629C318.359 112.818 317.61 111.82 317.111 110.572C316.55 109.387 316.3 107.952 316.3 106.33C316.3 104.147 316.737 102.338 317.673 100.965C318.608 99.5927 319.856 98.5321 321.416 97.7211C322.975 96.9725 324.722 96.411 326.718 96.0367C328.652 95.7248 330.649 95.5376 332.77 95.4128L338.322 95.2257V93.978C338.322 91.233 337.698 89.2991 336.575 88.0514C335.39 86.8661 333.518 86.2422 330.898 86.2422C328.278 86.2422 326.406 86.6789 325.221 87.5523C323.973 88.4257 323.225 89.5486 322.851 91.0459L317.922 90.4844C318.484 87.5523 319.856 85.4312 322.102 84.0587C324.285 82.6862 327.28 82 331.085 82C333.394 82 335.328 82.3119 336.95 82.8734C338.572 83.4349 339.882 84.2459 340.88 85.244C341.878 86.3046 342.564 87.6147 343.001 89.1119C343.438 90.6716 343.687 92.4184 343.687 94.2899V108.271L343.692 108.271C343.692 109.539 343.839 110.952 346.227 110.952H347.397V115.193H344.96C344.589 115.193 344.155 115.188 343.687 115.152V115.251L343.663 115.15C342.597 115.064 341.358 114.812 340.281 114.072C339.033 113.214 338.526 111.569 338.428 110.855L338.454 110.822ZM338.322 102.712V99.0936L333.144 99.2807C330.898 99.4055 329.089 99.5927 327.654 99.9046C326.157 100.279 325.034 100.716 324.161 101.277C323.287 101.839 322.726 102.525 322.351 103.336C321.977 104.209 321.852 105.145 321.852 106.206C321.852 107.828 322.289 109.138 323.287 110.136C324.285 111.134 325.907 111.571 328.153 111.571C331.335 111.571 333.83 110.822 335.639 109.2C337.386 107.64 338.322 105.457 338.322 102.712Z" fill="#215AC9"/>
<path fill-rule="evenodd" clip-rule="evenodd" d="M398.778 116.5C399.021 116.5 399.262 116.497 399.5 116.491V116.5C405.006 116.5 408.643 114.465 411 111.509V115H416.5V92.5H400V97.5H411C411 109.5 404 111.531 399.5 111.531V111.531C399.283 111.537 399.063 111.54 398.84 111.54C396.608 111.54 394.624 111.106 392.888 110.238C391.152 109.37 389.726 108.13 388.548 106.518C387.37 104.906 386.502 102.984 385.882 100.752C385.262 98.52 384.952 95.978 384.952 93.25C384.952 90.522 385.262 88.042 385.882 85.81C386.502 83.578 387.37 81.656 388.548 80.044C389.726 78.432 391.152 77.192 392.888 76.324C394.624 75.456 396.546 74.96 398.778 74.96C400.638 74.96 402.188 75.208 403.49 75.704C404.792 76.2 405.908 76.882 406.838 77.75C407.768 78.68 408.512 79.796 409.132 81.098C409.528 81.9305 409.874 82.8137 410.169 83.7638L415.763 82.8088C415.347 81.3295 414.847 79.9246 414.216 78.618C413.348 76.882 412.232 75.332 410.868 74.03C409.504 72.79 407.83 71.798 405.846 71.054C403.862 70.372 401.506 70 398.778 70C395.926 70 393.322 70.558 390.904 71.55C388.486 72.604 386.378 74.092 384.642 76.076C382.844 78.06 381.48 80.54 380.488 83.392C379.496 86.306 379 89.592 379 93.312C379 97.032 379.434 100.318 380.364 103.17C381.294 106.022 382.596 108.44 384.332 110.424C386.006 112.408 388.052 113.958 390.532 114.95C392.95 116.004 395.678 116.5 398.778 116.5Z" fill="#215AC9"/>
<path fill-rule="evenodd" clip-rule="evenodd" d="M18.3857 16.8429L35.2286 0H59.6571V30.0858L30.0858 59.6571H0V35.2286L18.3857 16.8429ZM29.8689 66.3429H0V90.7714L18.3857 109.157L35.2286 126H59.6571V96.1311L29.8689 66.3429ZM66.3429 96.1311V126H90.7714L107.614 109.157L126 90.7714V66.3429H96.1311L66.3429 96.1311ZM95.9142 59.6571H126V35.2286L107.614 16.8429L90.7714 0H66.3429V30.0858L95.9142 59.6571Z" fill="#215AC9"/>
</svg>
